<svg xmlns="http://www.w3.org/2000/svg" version="1.1" viewBox="-5.0 0 110.0 110.0">
 <path d="m30 8c-2.2148 0-4 1.7852-4 4v12c0 2.2148 1.7852 4 4 4s4-1.7852 4-4v-12c0-2.2148-1.7852-4-4-4zm40 0c-2.2148 0-4 1.7852-4 4v12c0 2.2148 1.7852 4 4 4s4-1.7852 4-4v-12c0-2.2148-1.7852-4-4-4zm-54 10c-3.3242 0-6 2.6758-6 6v14h80v-14c0-3.3242-2.6758-6-6-6h-6v6c0 4.3633-3.6367 8-8 8s-8-3.6367-8-8v-6h-24v6c0 4.3633-3.6367 8-8 8s-8-3.6367-8-8v-6zm-6 24v44c0 3.3242 2.6758 6 6 6h68c3.3242 0 6-2.6758 6-6v-44z"/>
</svg>