<svg xmlns="http://www.w3.org/2000/svg" version="1.1" viewBox="-5.0 -10.0 110.0 110.0">
 <path d="m50 3.125c25.871 0 46.875 21.004 46.875 46.875s-21.004 46.875-46.875 46.875-46.875-21.004-46.875-46.875 21.004-46.875 46.875-46.875zm0 6.25c-22.422 0-40.625 18.203-40.625 40.625s18.203 40.625 40.625 40.625 40.625-18.203 40.625-40.625-18.203-40.625-40.625-40.625zm3.125 39.332 15.691 15.691c1.2227 1.2188 1.2227 3.1992 0 4.418-1.2188 1.2227-3.1992 1.2227-4.418 0l-15.691-15.691c-1.1719-1.1719-1.832-2.7617-1.832-4.418v-26.832c0-1.7266 1.3984-3.125 3.125-3.125s3.125 1.3984 3.125 3.125z" fill="currentColor" fill-rule="evenodd"/></svg>