<svg xmlns="http://www.w3.org/2000/svg" xmlns:xlink="http://www.w3.org/1999/xlink" version="1.1" x="0px" y="0px" viewBox="0 0 50 50" style="enable-background:new 0 0 60 60;" xml:space="preserve"><rect x="37.7030029" y="48.3565674" width="8.5820313" height="6.6434326"/><rect x="38.1834717" y="31.0100098" width="7.8261719" height="4.8641357"/><path d="M52.6400146,55c0.5500488,0,1-0.4399414,1-1V36.1200562c0-0.2700195-0.0999756-0.5200195-0.289978-0.710022  l-4.1099854-4.1099854c-0.1900024-0.1900024-0.4500122-0.2900391-0.710022-0.2900391h-0.5203857v5.8641357  c0,0.5527344-0.4472656,1-1,1h-9.8261719c-0.5527344,0-1-0.4472656-1-1v-5.8641357h-3.5834351c-0.5499878,0-1,0.4500122-1,1V54  c0,0.5600586,0.4500122,1,1,1h3.1029663v-7.6434326c0-0.5527344,0.4472656-1,1-1h10.5820313c0.5527344,0,1,0.4472656,1,1V55  H52.6400146z"/><path d="M29.6000366,32.0100098c0-1.6499634,1.3499756-3,3-3h11.0200195v-3.5299683  c-3.9900513,2.1400146-11.3400269,3.2399902-18.6300049,3.2399902c-7.2900391,0-14.6400146-1.0999756-18.6300049-3.2399902  v7.2999878c2.4599609,1.7700195,9.1900024,3.5999756,18.6300049,3.5999756c1.6199951,0,3.1599731-0.0499878,4.6099854-0.1499634  V32.0100098z"/><path d="M6.3600464,15.75v7.3800049c2.4599609,1.7700195,9.1900024,3.5900269,18.6300049,3.5900269  s16.1699829-1.8200073,18.6300049-3.5999756V15.75c-3.9900513,2.1300049-11.3400269,3.2400513-18.6300049,3.2400513  C17.7000122,18.9900513,10.3500366,17.8900146,6.3600464,15.75z"/><path d="M24.9900513,5C15.9500122,5,6.3600464,7.4500122,6.3600464,12v1.3900146  c2.4599609,1.7700195,9.1900024,3.6000366,18.6300049,3.6000366s16.1699829-1.8300171,18.6300049-3.6000366V12  C43.6200562,7.4500122,34.0200195,5,24.9900513,5z"/><path d="M24.9900513,48.1900024c1.6099854,0,3.1300049-0.1499634,4.6099854-0.2999878v-9.6599731  c-1.5200195,0.0999756-3.0700073,0.1499634-4.6099854,0.1499634c-7.2900391,0-14.6400146-1.0999756-18.6300049-3.2399902v6.0599976  C6.3600464,45.7400513,15.9500122,48.1900024,24.9900513,48.1900024z"/></svg>